# AST/ASF file generated using VICON BodyLanguage
# -----------------------------------------------
:version 1.10
:name VICON
:units
  mass 1.0
  length 0.45
  angle deg
:documentation
   .ast/.asf automatically generated from VICON data using
   VICON BodyBuilder and BodyLanguage model FoxedUp or BRILLIANT.MOD
:root
   order TX TY TZ RX RY RZ
   axis XYZ
   position 0 0 0  
   orientation 0 0 0 
:bonedata
  begin
     id 1 
     name lhipjoint
     direction 0.646657 -0.683706 0.338203 
     length 2.4948 
     axis 0 0 0  XYZ
  end
  begin
     id 2 
     name lfemur
     direction 0.34202 -0.939693 0  
     length 6.79491  
     axis 0 0 20  XYZ
    dof rx ry rz
    limits (-160.0 20.0)
           (-70.0 70.0)
           (-60.0 70.0)
  end
  begin
     id 3 
     name ltibia
     direction 0.34202 -0.939693 0   
     length 7.56807   
     axis 0 0 20   XYZ
    dof rx
    limits (-10.0 170.0)
  end
  begin
     id 4 
     name lfoot
     direction 0.0679796 -0.186772 0.980048   
     length 2.53018   
     axis -90 7.62852e-016 20   XYZ
    dof rx rz
    limits (-45.0 90.0)
           (-70.0 20.0)
  end
  begin
     id 5 
     name ltoes
     direction 1.53625e-011 -4.21881e-011 1   
     length 1.26912   
     axis -90 7.62852e-016 20   XYZ
    dof rx
    limits (-90.0 20.0)
  end
  begin
     id 6 
     name rhipjoint
     direction -0.618868 -0.704065 0.348274   
     length 2.42265  
     axis 0 0 0  XYZ 
  end
  begin
     id 7 
     name rfemur
     direction -0.34202 -0.939693 0   
     length 6.73814   
     axis 0 0 -20   XYZ
    dof rx ry rz
    limits (-160.0 20.0)
           (-70.0 70.0)
           (-70.0 60.0)
  end
  begin
     id 8 
     name rtibia
     direction -0.34202 -0.939693 0   
     length 7.66799   
     axis 0 0 -20   XYZ
    dof rx
    limits (-10.0 170.0)
 end
 begin
     id 9 
     name rfoot
     direction -0.0727352 -0.199838 0.977125   
     length 2.57224  
     axis -90 -7.62852e-016 -20   XYZ
    dof rx rz
    limits (-45.0 90.0)
           (-20.0 70.0)
  end
  begin
     id 10 
     name rtoes
     direction -1.53501e-011 -4.21858e-011 1   
     length 1.28858   
     axis -90 -7.62852e-016 -20   XYZ
    dof rx
    limits (-90.0 20.0)
  end
  begin
     id 11 
     name lowerback
     direction -0.0172471 0.995767 -0.0902851   
     length 2.20206   
     axis 0 0 0   XYZ
    dof rx ry rz
    limits (-20.0 45.0)
           (-30.0 30.0)
           (-30.0 30.0)
  end
  begin
     id 12 
     name upperback
     direction -0.000110737 0.999714 0.0239043   
     length 2.19523   
     axis 0 0 0   XYZ
    dof rx ry rz
    limits (-20.0 45.0)
           (-30.0 30.0)
           (-30.0 30.0)
  end
  begin
     id 13 
     name thorax
     direction 0.00704869 0.997783 0.0661741   
     length 2.21977   
     axis 0 0 0   XYZ
    dof rx ry rz
    limits (-20.0 45.0)
           (-30.0 30.0)
           (-30.0 30.0)
  end
  begin
     id 14 
     name lowerneck
     direction -0.00407501 0.995527 0.0943846   
     length 1.83142   
     axis 0 0 0   XYZ
    dof rx ry rz
    limits (-20.0 45.0)
           (-30.0 30.0)
           (-30.0 30.0)
  end
  begin
     id 15 
     name upperneck
     direction 0.0640586 0.986486 -0.150807   
     length 1.84616   
     axis 0 0 0   XYZ
    dof rx ry rz
    limits (-20.0 45.0)
           (-30.0 30.0)
           (-30.0 30.0)
  end
  begin
     id 16
     name head
     direction 0.0188017 0.99791 -0.0618239  
     length 1.85932  
     axis 0 0 0   XYZ
    dof rx ry rz
    limits (-20.0 45.0)
           (-30.0 30.0)
           (-30.0 30.0)
  end
  begin
     id 17 
     name lclavicle
     direction 0.976074 0.206905 0.066852  
     length 3.81043  
     axis 0 0 0   XYZ
    dof ry rz
    limits (-20.0 10.0)
           (0.0 20.0)
  end
  begin
     id 18 
     name lhumerus
     direction 1 -4.48971e-011 1.86916e-027   
     length 5.37587   
     axis 180 -30 -90   XYZ
    dof rx ry rz
    limits (-60.0 90.0)
           (-90.0 90.0)
           (-90.0 90.0)
  end
  begin
     id 19
     name lradius
     direction 1 -4.48968e-011 1.69187e-027   
     length 3.35977   
     axis 180 -30 -90   XYZ
    dof rx
    limits (-10.0 170.0)
  end
  begin
     id 20
     name lwrist
     direction 1 -4.48968e-011 5.8978e-027   
     length 1.67988   
     axis -3.27506e-015 90 90   XYZ
    dof ry
    limits (-180.0 0.0)
 end
  begin
     id 21 
     name lhand
     direction 1 -4.49028e-011 1.18071e-026   
     length 0.561859   
     axis -7.52654e-015 90 90   XYZ
    dof rx rz
    limits (-90.0 90.0)
           (-45.0 45.0)
  end
  begin
     id 22 
     name lfingers
     direction 1 -4.48927e-011 2.35758e-026   
     length 0.452985   
     axis -1.50534e-014 90 90   XYZ
    dof rx
    limits (0.0 90.0)
  end
  begin
     id 23
     name lthumb
     direction 0.707107 -6.34898e-011 0.707107   
     length 0.650399   
     axis -90 45 5.69224e-014   XYZ
    dof rx rz
    limits (-45.0 45.0)
           (-45.0 45.0)
  end
  begin
     id 24 
     name rclavicle
     direction -0.988403 0.151789 0.00439714   
     length 3.6942  
     axis 0 0 0   XYZ 
    dof ry rz
    limits (-10.0 20.0)
           (-20.0 0.0)
  end
  begin
     id 25 
     name rhumerus
     direction -1 -4.48978e-011 1.62495e-027  
     length 5.22819   
     axis 180 30 90   XYZ
    dof rx ry rz
    limits (-90.0 60.0)
           (-90.0 90.0)
           (-90.0 90.0)
  end
  begin
     id 26 
     name rradius
     direction -1 -4.48961e-011 3.47796e-027   
     length 3.40764   
     axis 180 30 90   XYZ
    dof rx
    limits (-10.0 170.0)
  end
  begin
     id 27 
     name rwrist
     direction -1 -4.48949e-011 5.89602e-027   
     length 1.70382   
     axis -3.27506e-015 -90 -90   XYZ
    dof ry
    limits (-180.0 0.0)
  end
  begin
     id 28
     name rhand
     direction -1 -4.48977e-011 1.17973e-026   
     length 0.583255   
     axis -7.52654e-015 -90 -90   XYZ
    dof rx rz
    limits (-90.0 90.0)
           (-45.0 45.0)
  end
  begin
     id 29
     name rfingers
     direction -1 -4.49099e-011 2.36408e-026   
     length 0.470235   
     axis -1.50534e-014 -90 -90   XYZ
    dof rx
    limits (0.0 90.0)
  end
  begin
     id 30
     name rthumb
     direction -0.707107 -6.35011e-011 0.707107   
     length 0.675167   
     axis -90 -45 -5.69224e-014   XYZ
    dof rx rz
    limits (-45.0 45.0)
           (-45.0 45.0)
  end
:hierarchy
  begin
    root lhipjoint rhipjoint lowerback
    lhipjoint lfemur
    lfemur ltibia
    ltibia lfoot
    lfoot ltoes
    rhipjoint rfemur
    rfemur rtibia
    rtibia rfoot
    rfoot rtoes
    lowerback upperback
    upperback thorax
    thorax lowerneck lclavicle rclavicle
    lowerneck upperneck
    upperneck head
    lclavicle lhumerus
    lhumerus lradius
    lradius lwrist
    lwrist lhand lthumb
    lhand lfingers
    rclavicle rhumerus
    rhumerus rradius
    rradius rwrist
    rwrist rhand rthumb
    rhand rfingers
  end

#!OML:ASF G:\JayActor3\Patient Classification 1\Patient 1\Session 2\male.ASF
:FULLY-SPECIFIED
:DEGREES
294
root 47.9903 16.4821 -6.83159 98.5638 -87.3665 -98.4239
lowerback -0.947521 -0.486224 -4.50281
upperback 4.25814 -0.490963 -2.14847
thorax 4.95873 -0.41523 0.266221
lowerneck -11.991 -1.60748 -3.70578
upperneck 12.1875 -2.43211 6.00915
head 5.77117 -0.930111 2.29671
rclavicle -1.17283e-014 -3.65764e-014
rhumerus -34.1144 -6.95045 -85.7075
rradius 25.4873
rwrist -1.75864
rhand -19.6161 6.13942
rfingers 7.12502
rthumb 6.71046 -23.7342
lclavicle -1.17283e-014 -3.65764e-014
lhumerus -23.3091 -44.2009 97.7916
lradius 86.0905
lwrist 18.3619
lhand -16.104 20.6311
lfingers 7.12502
lthumb 10.0999 50.3688
rfemur -37.8757 4.62195 20.2396
rtibia 55.2184
rfoot -12.253 -5.4504
rtoes 10.6817
lfemur 2.64595 9.69733 -19.9648
ltibia 19.6897
lfoot -20.0926 2.14631
ltoes 2.27157
295
root 47.935 16.4792 -6.83436 94.4525 -87.4566 -94.2148
lowerback -0.946122 -0.536368 -4.54798
upperback 4.23422 -0.55681 -2.14364
thorax 4.93618 -0.448795 0.293253
lowerneck -11.9969 -1.63943 -3.73287
upperneck 11.955 -2.4658 6.07042
head 5.7022 -0.944271 2.31656
rclavicle -4.37326e-015 0
rhumerus -34.2064 -6.97964 -85.6587
rradius 25.5033
rwrist -1.77409
rhand -19.6207 6.12289
rfingers 7.12502
rthumb 6.70603 -23.7509
lclavicle -4.37326e-015 0
lhumerus -23.4262 -44.7811 98.1121
lradius 87.2518
lwrist 18.6414
lhand -16.2254 20.3789
lfingers 7.12502
lthumb 9.98275 50.1222
rfemur -37.9482 4.80516 20.0772
rtibia 54.1381
rfoot -12.2419 -5.45505
rtoes 10.5858
lfemur 2.90434 9.61463 -20.0055
ltibia 19.3717
lfoot -20.0433 2.10021
ltoes 2.10409
296
root 47.8786 16.4765 -6.83718 89.8436 -87.5203 -89.5156
lowerback -0.930892 -0.586013 -4.57623
upperback 4.21592 -0.62354 -2.13256
thorax 4.91157 -0.482302 0.317417
lowerneck -12.0047 -1.67567 -3.75712
upperneck 11.7078 -2.505 6.13267
head 5.62934 -0.961106 2.33571
rclavicle -1.68967e-014 -4.92986e-014
rhumerus -34.2931 -7.0111 -85.6105
rradius 25.5269
rwrist -1.79511
rhand -19.6231 6.10711
rfingers 7.12502
rthumb 6.70363 -23.7668
lclavicle -1.68967e-014 -4.92986e-014
lhumerus -23.5699 -45.3681 98.4731
lradius 88.3711
lwrist 18.9274
lhand -16.413 20.099
lfingers 7.12502
lthumb 9.80167 49.8509
rfemur -37.9875 4.98451 19.9194
rtibia 53.031
rfoot -12.2485 -5.45583
rtoes 10.5105
lfemur 3.17862 9.51701 -20.0314
ltibia 19.0459
lfoot -19.9921 2.05799
ltoes 1.93909
297
root 47.8211 16.474 -6.83995 84.8183 -87.5553 -84.4054
lowerback -0.909401 -0.634819 -4.58851
upperback 4.20586 -0.69008 -2.11527
thorax 4.89189 -0.515419 0.339118
lowerneck -12.014 -1.71568 -3.77739
upperneck 11.4435 -2.54884 6.19443
head 5.55176 -0.980306 2.35361
rclavicle 2.5842e-015 -2.8625e-014
rhumerus -34.3718 -7.03388 -85.5673
rradius 25.5638
rwrist -1.83304
rhand -19.6244 6.08669
rfingers 7.12502
rthumb 6.70243 -23.7872
lclavicle 2.5842e-015 -2.8625e-014
lhumerus -23.725 -45.9468 98.8626
lradius 89.4422
lwrist 19.1596
lhand -16.5709 19.8226
lfingers 7.12502
lthumb 9.64942 49.5816
rfemur -37.9955 5.16381 19.7631
rtibia 51.9014
rfoot -12.2687 -5.45533
rtoes 10.4718
lfemur 3.4663 9.39853 -20.0461
ltibia 18.7148
lfoot -19.941 2.02192
ltoes 1.79128
298
root 47.7626 16.4713 -6.84268 79.5213 -87.5589 -79.028
lowerback -0.878656 -0.684881 -4.58519
upperback 4.20228 -0.759464 -2.09066
thorax 4.8737 -0.549605 0.359642
lowerneck -12.0277 -1.75928 -3.79742
upperneck 11.1654 -2.59621 6.25376
head 5.47092 -1.00157 2.37037
rclavicle -2.5842e-015 -1.59028e-015
rhumerus -34.4448 -7.03144 -85.5324
rradius 25.6162
rwrist -1.89105
rhand -19.6201 6.06184
rfingers 7.12502
rthumb 6.70656 -23.8119
lclavicle -2.5842e-015 -1.59028e-015
lhumerus -23.8845 -46.5035 99.2703
lradius 90.469
lwrist 19.3019
lhand -16.629 19.5841
lfingers 7.12502
lthumb 9.59332 49.3457
rfemur -37.9761 5.34408 19.6081
rtibia 50.7537
rfoot -12.2881 -5.45628
rtoes 10.4807
lfemur 3.76507 9.25704 -20.0502
ltibia 18.3823
lfoot -19.8939 1.98451
ltoes 1.70455
299
root 47.7029 16.4684 -6.84546 74.1558 -87.5266 -73.5863
lowerback -0.842952 -0.734259 -4.56092
upperback 4.20302 -0.828932 -2.06097
thorax 4.85691 -0.583184 0.373805
lowerneck -12.037 -1.80523 -3.81266
upperneck 10.875 -2.64692 6.31228
head 5.38576 -1.02472 2.38583
rclavicle -1.98785e-015 -3.18055e-014
rhumerus -34.5148 -7.01219 -85.5078
rradius 25.679
rwrist -1.96646
rhand -19.6093 6.02951
rfingers 7.12502
rthumb 6.71702 -23.844
lclavicle -1.98785e-015 -3.18055e-014
lhumerus -24.0563 -47.0348 99.6965
lradius 91.4535
lwrist 19.3502
lhand -16.5813 19.3711
lfingers 7.12502
lthumb 9.63938 49.1306
rfemur -37.9315 5.5277 19.4586
rtibia 49.5943
rfoot -12.2979 -5.46548
rtoes 10.5148
lfemur 4.07419 9.09325 -20.0407
ltibia 18.0495
lfoot -19.8494 1.95098
ltoes 1.67097
300
root 47.6419 16.4651 -6.84839 68.8407 -87.4719 -68.195
lowerback -0.804768 -0.784461 -4.5342
upperback 4.20396 -0.899808 -2.02686
thorax 4.83902 -0.617425 0.391211
lowerneck -12.0425 -1.85052 -3.82974
upperneck 10.5784 -2.69602 6.37014
head 5.29814 -1.04754 2.40157
rclavicle -7.15625e-015 6.36111e-015
rhumerus -34.5903 -6.96025 -85.4934
rradius 25.7573
rwrist -2.06557
rhand -19.5903 5.98952
rfingers 7.12502
rthumb 6.73529 -23.8834
lclavicle -7.15625e-015 6.36111e-015
lhumerus -24.2369 -47.5256 100.138
lradius 92.3906
lwrist 19.2713
lhand -16.371 19.1878
lfingers 7.12502
lthumb 9.84225 48.9378
rfemur -37.8709 5.71158 19.3001
rtibia 48.4326
rfoot -12.2836 -5.47706
rtoes 10.5882
lfemur 4.38814 8.91682 -20.0329
ltibia 17.7182
lfoot -19.8068 1.91988
ltoes 1.66639
